<svg xmlns="http://www.w3.org/2000/svg" width="24.979" height="24.978" viewBox="873.998 1069.716 24.979 24.978"><path d="M879.59 1094.694h-5.18v-16.677h5.18v16.677Zm-2.593-18.952c-1.656 0-2.999-1.371-2.999-3.027a3 3 0 0 1 5.998 0c0 1.656-1.343 3.027-2.999 3.027Zm21.974 18.952h-5.167v-8.118c0-1.935-.04-4.416-2.693-4.416-2.692 0-3.105 2.102-3.105 4.276v8.258h-5.173v-16.677h4.967v2.275h.073c.69-1.31 2.38-2.693 4.9-2.693 5.24 0 6.204 3.451 6.204 7.934v9.16Z" fill-rule="evenodd" data-name="Icon awesome-linkedin-in"/></svg>