<svg xmlns="http://www.w3.org/2000/svg" width="18.152" height="18.152" viewBox="0 0 18.152 18.152"><g transform="translate(1 1)"><path d="M11.679,19.858a8.179,8.179,0,1,1,8.179-8.179A8.188,8.188,0,0,1,11.679,19.858Zm0-14.358a6.179,6.179,0,1,0,6.179,6.179A6.186,6.186,0,0,0,11.679,5.5Z" transform="translate(-4.5 -4.5)" fill="#5f5f5f"/><path d="M28.878,29.878a1,1,0,0,1-.707-.293l-3.9-3.9a1,1,0,0,1,1.414-1.414l3.9,3.9a1,1,0,0,1-.707,1.707Z" transform="translate(-12.726 -12.726)" fill="#5f5f5f"/></g></svg>