<svg xmlns="http://www.w3.org/2000/svg" xmlns:xlink="http://www.w3.org/1999/xlink" width="81.529" height="66" viewBox="0 0 81.529 66"><defs><clipPath id="a"><rect width="22.471" height="37.673" fill="none"/></clipPath><linearGradient id="b" x1="-0.5" y1="1.2" x2="-0.493" y2="1.2" gradientUnits="objectBoundingBox"><stop offset="0" stop-color="#fff"/><stop offset="1" stop-color="#e6e7e8"/></linearGradient></defs><g transform="translate(-1067.5 -5692.492)"><g transform="translate(1067.5 5693.491)"><path d="M48,0V65H98V18.447L79.553,0Z" transform="translate(-40.5)" fill="#231f20"/><path d="M114.5,81.5H72V24H98.25L114.5,40.25Z" transform="translate(-60.75 -20.25)" fill="#fff"/><path d="M240,40.25V24l16.25,16.25Z" transform="translate(-202.5 -20.25)" fill="#6d6e71"/><path d="M240,128l16.25,16.25V128Z" transform="translate(-202.5 -108)" fill="#e6e7e8"/><rect width="11.236" height="37.673" transform="translate(0 19.828)" fill="#231f20"/><g transform="translate(11.236 19.828)"><g transform="translate(0 0)" clip-path="url(#a)"><rect width="22.471" height="37.673" fill="url(#b)"/></g></g><rect width="29.742" height="29.742" transform="translate(3.966 23.793)" fill="#3164bc"/><path d="M66.75,192l-2.857,10L61.75,192h-5l-2.143,10L51.75,192H48l5,17.5h3.75l2.5-11.25,2.5,11.25H65.5l5-17.5Z" transform="translate(-40.5 -162)" fill="#fff"/><rect width="8.592" height="2.644" transform="translate(33.707 31.064)" fill="#e6e7e8"/><rect width="8.592" height="2.644" transform="translate(33.707 37.673)" fill="#e6e7e8"/><rect width="8.592" height="2.644" transform="translate(33.707 43.621)" fill="#e6e7e8"/><rect width="8.592" height="1.983" transform="translate(33.707 50.23)" fill="#e6e7e8"/><rect width="8.592" height="2.644" transform="translate(33.707 25.115)" fill="#e6e7e8"/></g><g transform="translate(1148.029 5693.492) rotate(90)"><path d="M22.348,19H7.5a1,1,0,0,1,0-2H22.348a1,1,0,1,1,0,2Z" transform="translate(-7.5 -10.735)" fill="#012c37"/><path d="M18,23.029a1,1,0,0,1-.7-1.715l6.693-6.55L17.3,8.215a1,1,0,0,1,1.4-1.429l7.424,7.265a1,1,0,0,1,0,1.429L18.7,22.744A1,1,0,0,1,18,23.029Z" transform="translate(-10.576 -7.5)" fill="#012c37"/></g></g></svg>