<svg xmlns="http://www.w3.org/2000/svg" xmlns:xlink="http://www.w3.org/1999/xlink" width="396.072" height="479.638" viewBox="0 0 396.072 479.638"><defs><filter id="a" x="19.867" y="17.813" width="376.205" height="461.825" filterUnits="userSpaceOnUse"><feOffset input="SourceAlpha"/><feGaussianBlur stdDeviation="3" result="b"/><feFlood flood-opacity="0.161"/><feComposite operator="in" in2="b"/><feComposite in="SourceGraphic"/></filter><filter id="c" x="16.656" y="12.356" width="363.763" height="453.442" filterUnits="userSpaceOnUse"><feOffset input="SourceAlpha"/><feGaussianBlur stdDeviation="3" result="d"/><feFlood flood-opacity="0.161"/><feComposite operator="in" in2="d"/><feComposite in="SourceGraphic"/></filter><filter id="e" x="13.521" y="5.813" width="350.898" height="444.53" filterUnits="userSpaceOnUse"><feOffset input="SourceAlpha"/><feGaussianBlur stdDeviation="3" result="f"/><feFlood flood-opacity="0.161"/><feComposite operator="in" in2="f"/><feComposite in="SourceGraphic"/></filter><filter id="g" x="9.178" y="3.012" width="337.629" height="435.098" filterUnits="userSpaceOnUse"><feOffset input="SourceAlpha"/><feGaussianBlur stdDeviation="3" result="h"/><feFlood flood-opacity="0.161"/><feComposite operator="in" in2="h"/><feComposite in="SourceGraphic"/></filter><filter id="i" x="0" y="0" width="323.97" height="425.157" filterUnits="userSpaceOnUse"><feOffset input="SourceAlpha"/><feGaussianBlur stdDeviation="3" result="j"/><feFlood flood-opacity="0.161"/><feComposite operator="in" in2="j"/><feComposite in="SourceGraphic"/></filter></defs><g transform="translate(13778.843 3078.229)"><g transform="matrix(1, 0, 0, 1, -13778.84, -3078.23)" filter="url(#a)"><rect width="299" height="402" rx="8" transform="translate(91.75 26.81) rotate(9)" fill="#848484"/></g><g transform="matrix(1, 0, 0, 1, -13778.84, -3078.23)" filter="url(#c)"><rect width="299" height="402" rx="8" transform="translate(74.65 21.36) rotate(7)" fill="#e5e4e0"/></g><g transform="matrix(1, 0, 0, 1, -13778.84, -3078.23)" filter="url(#e)"><rect width="299" height="402" rx="8" transform="matrix(1, 0.09, -0.09, 1, 57.56, 14.81)" fill="#0a433d"/></g><g transform="matrix(1, 0, 0, 1, -13778.84, -3078.23)" filter="url(#g)"><rect width="299" height="402" rx="8" transform="translate(39.22 12.01) rotate(3)" fill="#eaac4d"/></g><g transform="matrix(1, 0, 0, 1, -13778.84, -3078.23)" filter="url(#i)"><rect width="299" height="402" rx="8" transform="matrix(1, 0.02, -0.02, 1, 16.02, 9)" fill="#f08974"/></g></g></svg>