<svg id="Group_1017" data-name="Group 1017" xmlns="http://www.w3.org/2000/svg" xmlns:xlink="http://www.w3.org/1999/xlink" width="296.138" height="61.977" viewBox="0 0 296.138 61.977">
  <defs>
    <clipPath id="clip-path">
      <rect id="Rectangle_951" data-name="Rectangle 951" width="296.138" height="61.977" fill="none"/>
    </clipPath>
  </defs>
  <rect id="Rectangle_949" data-name="Rectangle 949" width="0.483" height="61.977" transform="translate(219.955)" fill="#fff"/>
  <rect id="Rectangle_950" data-name="Rectangle 950" width="0.483" height="61.977" transform="translate(219.955)" fill="#fff"/>
  <path id="Path_4941" data-name="Path 4941" d="M1196.167,115.18v-1.54h5.439v1.54l-1.407.262v3.675h5.358v-3.675l-1.407-.262v-1.54h5.438v1.54l-1.407.262v9.143l1.407.263v1.53h-5.438v-1.53l1.407-.263v-3.5H1200.2v3.5l1.407.263v1.53h-5.439v-1.53l1.4-.263v-9.143Z" transform="translate(-970.902 -92.239)" fill="#fff"/>
  <g id="Group_1018" data-name="Group 1018">
    <g id="Group_1017-2" data-name="Group 1017" clip-path="url(#clip-path)">
      <path id="Path_4942" data-name="Path 4942" d="M1264.856,134.9a4.974,4.974,0,0,1,1.222-3.469,4.913,4.913,0,0,1,6.764,0,4.971,4.971,0,0,1,1.223,3.473v.184a4.966,4.966,0,0,1-1.223,3.478,4.93,4.93,0,0,1-6.764,0,4.966,4.966,0,0,1-1.222-3.478Zm2.633.184a4.012,4.012,0,0,0,.469,2.078,1.632,1.632,0,0,0,1.516.784,1.615,1.615,0,0,0,1.493-.788,3.991,3.991,0,0,0,.473-2.073V134.9a3.949,3.949,0,0,0-.477-2.056,1.629,1.629,0,0,0-1.506-.8,1.61,1.61,0,0,0-1.5.8,4.008,4.008,0,0,0-.469,2.056Z" transform="translate(-1026.655 -105.585)" fill="#fff"/>
      <path id="Path_4943" data-name="Path 4943" d="M1311.453,120.133l1.272-.262v-5.879h-1.452V112.2h1.452v-1.05a3.149,3.149,0,0,1,.947-2.454,3.809,3.809,0,0,1,2.66-.862,4.97,4.97,0,0,1,.681.048q.347.048.762.135l-.226,1.9c-.144-.024-.284-.044-.419-.061a3.677,3.677,0,0,0-.474-.026,1.285,1.285,0,0,0-.97.341,1.355,1.355,0,0,0-.329.98v1.05h1.939v1.793h-1.939v5.879l1.272.262v1.531h-5.177Z" transform="translate(-1064.331 -87.525)" fill="#fff"/>
      <path id="Path_4944" data-name="Path 4944" d="M1344.711,120.133l1.272-.262v-5.879h-1.452V112.2h1.452v-1.05a3.149,3.149,0,0,1,.947-2.454,3.81,3.81,0,0,1,2.661-.862,4.965,4.965,0,0,1,.68.048q.347.048.762.135l-.226,1.9c-.144-.024-.283-.044-.419-.061a3.672,3.672,0,0,0-.474-.026,1.285,1.285,0,0,0-.97.341,1.355,1.355,0,0,0-.329.98v1.05h1.939v1.793h-1.939v5.879l1.272.262v1.531h-5.177Z" transform="translate(-1091.325 -87.525)" fill="#fff"/>
      <path id="Path_4945" data-name="Path 4945" d="M1377.625,131.8v-1.54h3.851l.108,1.251a3.24,3.24,0,0,1,1.177-1.054,3.47,3.47,0,0,1,1.637-.372,3.056,3.056,0,0,1,1.605.4,2.5,2.5,0,0,1,1.01,1.216,3.332,3.332,0,0,1,1.173-1.19,3.257,3.257,0,0,1,1.7-.429,2.854,2.854,0,0,1,2.278.967,4.419,4.419,0,0,1,.834,2.944v3.937l1.272.262v1.531h-5.042v-1.531l1.136-.262v-3.946a2.336,2.336,0,0,0-.36-1.5,1.336,1.336,0,0,0-1.073-.42,1.884,1.884,0,0,0-.97.24,1.788,1.788,0,0,0-.654.67q0,.166.009.284c.006.078.009.159.009.241v4.427l1.064.262v1.531h-4.753v-1.531l1.064-.262v-3.946a2.34,2.34,0,0,0-.361-1.483,1.326,1.326,0,0,0-1.082-.433,2.1,2.1,0,0,0-.933.2,1.769,1.769,0,0,0-.663.556v5.109l1.136.262v1.531h-5.033v-1.531l1.272-.262v-5.871Z" transform="translate(-1118.187 -105.586)" fill="#fff"/>
      <path id="Path_4946" data-name="Path 4946" d="M1471.343,139.726a4.674,4.674,0,0,1-.19-.486,3.763,3.763,0,0,1-.126-.5,3.618,3.618,0,0,1-1.141.849,3.5,3.5,0,0,1-1.537.323,3.283,3.283,0,0,1-2.277-.756,2.629,2.629,0,0,1-.844-2.06,2.322,2.322,0,0,1,1.1-2.056,5.883,5.883,0,0,1,3.228-.726h1.344v-.928a1.372,1.372,0,0,0-.406-1.059,1.707,1.707,0,0,0-1.2-.376,2.929,2.929,0,0,0-.8.1,2.16,2.16,0,0,0-.568.241l-.171,1.015h-1.984l.009-2.1a7.478,7.478,0,0,1,1.654-.8,6.171,6.171,0,0,1,2.034-.324,4.731,4.731,0,0,1,2.945.862,2.9,2.9,0,0,1,1.132,2.454v3.91c0,.146,0,.283,0,.412a2.831,2.831,0,0,0,.031.367l.8.105v1.531Zm-2.282-1.706a2.342,2.342,0,0,0,1.082-.249,2.072,2.072,0,0,0,.758-.626V135.7h-1.344a1.869,1.869,0,0,0-1.271.381,1.176,1.176,0,0,0-.433.915.934.934,0,0,0,.32.752,1.337,1.337,0,0,0,.889.271" transform="translate(-1189.293 -105.587)" fill="#fff"/>
      <path id="Path_4947" data-name="Path 4947" d="M1513.347,138.2l1.263-.262v-5.871l-1.4-.262v-1.54h3.852l.117,1.356a3.518,3.518,0,0,1,1.2-1.129,3.185,3.185,0,0,1,1.6-.4,2.981,2.981,0,0,1,2.309.9,4.074,4.074,0,0,1,.83,2.826v4.121l1.262.262v1.531h-5.033V138.2l1.128-.262v-4.112a1.875,1.875,0,0,0-.4-1.352,1.627,1.627,0,0,0-1.2-.4,2.088,2.088,0,0,0-.938.206,1.913,1.913,0,0,0-.694.581v5.075l1.063.262v1.531h-4.96Z" transform="translate(-1228.239 -105.587)" fill="#fff"/>
      <path id="Path_4948" data-name="Path 4948" d="M1195.8,202.653l.847-.063,4.095-10.771h.895l4.054,10.771.863.063v.7h-2.843v-.7l1.006-.079-.95-2.582h-5.179l-.958,2.582,1.005.079v.7H1195.8Zm3.1-3.508h4.553l-2.241-6.1h-.047Z" transform="translate(-970.602 -155.695)" fill="#fff"/>
      <path id="Path_4949" data-name="Path 4949" d="M1249.915,211.222a5.564,5.564,0,0,1,.875-3.283,2.814,2.814,0,0,1,2.427-1.231,3.024,3.024,0,0,1,1.58.4,3.2,3.2,0,0,1,1.1,1.129l.111-1.37h.8v8.458a3.676,3.676,0,0,1-.894,2.613,3.247,3.247,0,0,1-2.5.958,6.27,6.27,0,0,1-1.318-.15,5.139,5.139,0,0,1-1.224-.412l.254-.8a5.393,5.393,0,0,0,1.081.38,5.137,5.137,0,0,0,1.192.135,2.288,2.288,0,0,0,1.837-.72,2.983,2.983,0,0,0,.618-2V214.24a2.993,2.993,0,0,1-1.1,1.01,3.3,3.3,0,0,1-1.56.352,2.861,2.861,0,0,1-2.415-1.149,4.946,4.946,0,0,1-.871-3.064Zm.95.166a4.312,4.312,0,0,0,.63,2.467,2.126,2.126,0,0,0,1.88.922,2.666,2.666,0,0,0,1.541-.42,2.717,2.717,0,0,0,.947-1.156v-3.976a3.036,3.036,0,0,0-.911-1.223,2.438,2.438,0,0,0-1.56-.471,2.082,2.082,0,0,0-1.889,1.03,4.985,4.985,0,0,0-.638,2.661Z" transform="translate(-1014.528 -167.78)" fill="#fff"/>
      <path id="Path_4950" data-name="Path 4950" d="M1294.485,215.6a3.44,3.44,0,0,1-2.677-1.184,4.347,4.347,0,0,1-1.062-3.014v-.435a4.467,4.467,0,0,1,1.058-3.049,3.271,3.271,0,0,1,2.554-1.212,3.174,3.174,0,0,1,2.479,1,3.814,3.814,0,0,1,.9,2.66v.808h-6.05v.229a3.785,3.785,0,0,0,.772,2.42,2.454,2.454,0,0,0,2.023.978,4.119,4.119,0,0,0,1.5-.246,2.97,2.97,0,0,0,1.069-.7l.4.649a3.426,3.426,0,0,1-1.22.8,4.689,4.689,0,0,1-1.758.3m-.126-8.086a2.27,2.27,0,0,0-1.762.8,3.442,3.442,0,0,0-.836,2.015l.016.04h5.021v-.238a2.738,2.738,0,0,0-.657-1.869,2.245,2.245,0,0,0-1.782-.752" transform="translate(-1047.67 -167.779)" fill="#fff"/>
      <path id="Path_4951" data-name="Path 4951" d="M1329.181,214.737l1.291-.1v-6.962l-1.291-.1v-.705h2.13l.087,1.5a3.056,3.056,0,0,1,1.113-1.223,3.1,3.1,0,0,1,1.659-.432,2.636,2.636,0,0,1,2.122.851,4.027,4.027,0,0,1,.729,2.657v4.42l1.291.1v.7h-3.532v-.7l1.291-.1v-4.412a3.1,3.1,0,0,0-.55-2.082,2,2,0,0,0-1.564-.61,2.457,2.457,0,0,0-1.628.527,2.929,2.929,0,0,0-.906,1.4v5.18l1.29.1v.7h-3.532Z" transform="translate(-1078.866 -167.779)" fill="#fff"/>
      <path id="Path_4952" data-name="Path 4952" d="M1378.712,214.8a2.7,2.7,0,0,0,1.663-.539,1.764,1.764,0,0,0,.721-1.5h.839l.016.048a2.354,2.354,0,0,1-.946,1.988,3.534,3.534,0,0,1-2.293.8,3.258,3.258,0,0,1-2.7-1.2,4.787,4.787,0,0,1-.958-3.084v-.333a4.779,4.779,0,0,1,.958-3.072,3.243,3.243,0,0,1,2.692-1.2,4.34,4.34,0,0,1,1.813.373,3.559,3.559,0,0,1,1.339,1.013l.04,1.869h-.808l-.151-1.521a2.7,2.7,0,0,0-.946-.677,3.154,3.154,0,0,0-1.287-.249,2.284,2.284,0,0,0-2.039.986,4.363,4.363,0,0,0-.661,2.482v.333a4.41,4.41,0,0,0,.657,2.5,2.3,2.3,0,0,0,2.051.982" transform="translate(-1116.1 -167.779)" fill="#fff"/>
      <path id="Path_4953" data-name="Path 4953" d="M1421.724,208.253l-.87.071-3.461,9.163a4.9,4.9,0,0,1-.863,1.481,1.949,1.949,0,0,1-1.553.61,2.83,2.83,0,0,1-.4-.036,2.057,2.057,0,0,1-.348-.076l.111-.792c.063.01.165.022.305.036s.239.019.3.019a1.223,1.223,0,0,0,.99-.435,4.142,4.142,0,0,0,.641-1.132l.444-1.149-3.042-7.69-.871-.071v-.7h2.946v.7l-1.022.079,2.09,5.465.3,1.03h.048l2.344-6.494-1.045-.079v-.7h2.962Z" transform="translate(-1146.981 -168.462)" fill="#fff"/>
      <path id="Path_4954" data-name="Path 4954" d="M1197.609,63.766v1.478h-.518l-.044-.987h-1.974v6.035l.8.063v.424h-2.18v-.424l.8-.063V64.258h-1.975l-.039.987h-.523V63.766Z" transform="translate(-967.478 -51.758)" fill="#fff"/>
      <path id="Path_4955" data-name="Path 4955" d="M1195.54,70.457h-2.377v-.611l.8-.063V63.936h-1.781l-.039.987h-.717V63.25h5.858v1.673h-.712l-.044-.987h-1.781v5.848l.8.063Zm-2.18-.195h1.982v-.237l-.8-.063V63.741h2.169l.043.987h.325V63.445h-5.463v1.284h.329l.039-.987h2.169v6.223l-.8.063Z" transform="translate(-967.051 -51.339)" fill="#fff"/>
      <path id="Path_4956" data-name="Path 4956" d="M1224.983,61.534v-.429h1.379V64.3a1.929,1.929,0,0,1,.7-.727,1.975,1.975,0,0,1,1.026-.26,1.617,1.617,0,0,1,1.283.51,2.365,2.365,0,0,1,.447,1.585v2.727l.8.063v.424h-2.179V68.2l.8-.063V65.4a1.769,1.769,0,0,0-.34-1.216,1.21,1.21,0,0,0-.936-.368,1.6,1.6,0,0,0-1,.311,1.805,1.805,0,0,0-.594.826v3.184l.8.063v.424h-2.175V68.2l.8-.063V61.6Z" transform="translate(-994.291 -49.598)" fill="#fff"/>
      <path id="Path_4957" data-name="Path 4957" d="M1230.292,68.3h-2.378v-.611l.8-.063V64.979a1.69,1.69,0,0,0-.314-1.151,1.1,1.1,0,0,0-.863-.337,1.5,1.5,0,0,0-.944.291,1.714,1.714,0,0,0-.556.766v3.077l.8.063V68.3h-2.373v-.611l.8-.063V61.268l-.8-.063V60.59h1.576v2.966a2.007,2.007,0,0,1,.554-.487,2.089,2.089,0,0,1,1.077-.273,1.717,1.717,0,0,1,1.358.544,2.46,2.46,0,0,1,.471,1.648v2.637l.8.063Zm-2.18-.195h1.982v-.237l-.8-.063V64.988a2.281,2.281,0,0,0-.423-1.521,1.508,1.508,0,0,0-1.208-.477,1.892,1.892,0,0,0-.975.247,1.841,1.841,0,0,0-.669.691l-.185.328V60.785h-1.181v.242l.8.063V67.8l-.8.063V68.1h1.978v-.237l-.8-.063.005-3.307a1.914,1.914,0,0,1,.626-.869,1.706,1.706,0,0,1,1.066-.331,1.308,1.308,0,0,1,1.009.4,1.867,1.867,0,0,1,.365,1.282V67.8l-.8.063Z" transform="translate(-993.865 -49.18)" fill="#fff"/>
      <path id="Path_4958" data-name="Path 4958" d="M1257.448,78.228a2.138,2.138,0,0,1-1.652-.72,2.619,2.619,0,0,1-.655-1.833v-.264a2.7,2.7,0,0,1,.652-1.855,2.032,2.032,0,0,1,1.576-.737,1.974,1.974,0,0,1,1.53.607,2.3,2.3,0,0,1,.557,1.619v.491h-3.734v.14a2.28,2.28,0,0,0,.477,1.472,1.525,1.525,0,0,0,1.249.595,2.579,2.579,0,0,0,.928-.15,1.827,1.827,0,0,0,.66-.429l.249.4a2.119,2.119,0,0,1-.752.489,2.936,2.936,0,0,1-1.085.18m-.078-4.917a1.411,1.411,0,0,0-1.088.489,2.08,2.08,0,0,0-.515,1.226l.009.024h3.1v-.145a1.652,1.652,0,0,0-.406-1.137,1.4,1.4,0,0,0-1.1-.457" transform="translate(-1018.77 -59.106)" fill="#fff"/>
      <path id="Path_4959" data-name="Path 4959" d="M1257.021,77.907a2.24,2.24,0,0,1-1.725-.752,2.72,2.72,0,0,1-.681-1.9v-.264a2.8,2.8,0,0,1,.677-1.919,2.137,2.137,0,0,1,1.651-.77,2.079,2.079,0,0,1,1.6.639,2.4,2.4,0,0,1,.583,1.684v.589h-3.735v.042a2.2,2.2,0,0,0,.456,1.411,1.415,1.415,0,0,0,1.171.558,2.489,2.489,0,0,0,.893-.143,1.742,1.742,0,0,0,.624-.406l.088-.089.357.565-.053.054a2.219,2.219,0,0,1-.788.511,3.035,3.035,0,0,1-1.121.188m-.078-5.409a1.921,1.921,0,0,0-1.5.7,2.613,2.613,0,0,0-.628,1.79v.264a2.537,2.537,0,0,0,.63,1.768,2.05,2.05,0,0,0,1.579.688,2.846,2.846,0,0,0,1.048-.174,2.047,2.047,0,0,0,.664-.413l-.143-.227a1.949,1.949,0,0,1-.6.365,2.677,2.677,0,0,1-.965.156,1.625,1.625,0,0,1-1.327-.631,2.383,2.383,0,0,1-.5-1.533V75.02h3.734v-.394a2.218,2.218,0,0,0-.531-1.553,1.887,1.887,0,0,0-1.456-.575m1.6,2.23h-3.265l-.043-.107,0-.024a2.184,2.184,0,0,1,.54-1.281,1.514,1.514,0,0,1,1.161-.521,1.5,1.5,0,0,1,1.173.491,1.753,1.753,0,0,1,.431,1.2Zm-3.1-.195h2.9v-.047a1.567,1.567,0,0,0-.381-1.073,1.4,1.4,0,0,0-2.039.032,1.966,1.966,0,0,0-.482,1.088" transform="translate(-1018.343 -58.687)" fill="#fff"/>
      <path id="Path_4960" data-name="Path 4960" d="M1107.782,63.65c.875.486,1.673,1.745,1.865,4.159l.026.327c1.156,14.539,1.415,24.235,4.86,31.756.064.138,0-36.242,0-36.242Z" transform="translate(-899.162 -51.663)" fill="#fff"/>
      <path id="Path_4961" data-name="Path 4961" d="M941.81,97.582a3.641,3.641,0,0,1,1.837-1.724,2.4,2.4,0,0,1,2.488.767c.749.72,1.393,1.062,1.815.962.265-.063.484-.346,1.035-1.417l.062-.175c1.616-4.571,2.791-7.053,4.359-7.053h.016c1.246.014,1.725,1.574,1.922,2.072a7.5,7.5,0,0,0,1.194,2.352c.324.313.6.024.829-.65.173-.52.375-1.47.609-2.569.953-4.486,1.764-7.684,3.53-7.984a2.045,2.045,0,0,1,2.146,1.277c.249.523.94,2.242,1.422,2.354.551.044.634-1.254.957-3.14.2-1.188.446-2.4.828-4.261.651-3.163,1.5-6.945,2.391-10.613.572-2.362,1.261-3.639,2.062-4.132h-29.5Z" transform="translate(-764.446 -51.662)" fill="#fff"/>
      <path id="Path_4962" data-name="Path 4962" d="M979.017,108.495a4.782,4.782,0,0,1-.439-.667c-3.758-7.844-4.015-17.745-5.206-32.731l-.026-.326c-.281-1.873-.49-2.69-1.087-2.732-.632-.045-1.015,1.064-1.432,2.758-.941,3.832-1.756,7.559-2.414,10.753-.378,1.837-.7,3.423-.881,4.575-.439,2.853-1,4.04-1.993,4.234-1.161.227-1.6-.281-2.454-1.684a16.458,16.458,0,0,1-.805-1.6c-.254-.56-.747-.683-1.014.026-.413,1.1-.316.744-.621,1.667a45.129,45.129,0,0,0-1.117,4.549c-.244,1.146-.454,2.137-.655,2.742-.454,1.362-1.119,2.053-1.977,2.053h0c-.428,0-1.915-.275-3.06-3.761-.2-.622-.382-.828-.724-.727-.37.164-1.277,2.095-2.566,5.741l-.062.175a3.336,3.336,0,0,1-2.167,2.434c-.993.235-2.1-.224-3.282-1.364-.536-.516-.809-.428-.9-.4-.862.278-1.845,2.422-2.324,4.286Z" transform="translate(-764.445 -58.472)" fill="#fff"/>
      <path id="Path_4963" data-name="Path 4963" d="M361.039,86.549h6.147a.709.709,0,0,1,.709.709v2.465c0,3.911-2.774,6.4-7.062,6.4-4.54,0-7.188-2.494-7.188-6.4V74.533c0-3.968,2.711-6.462,7.188-6.462,4.043,0,6.741,2.218,7.035,5.8a.713.713,0,0,0,.707.662h4.257a.711.711,0,0,0,.71-.757c-.43-6-5.93-10.806-12.709-10.806-7.251,0-12.862,5.215-12.862,11.563V89.724c0,6.291,5.548,11.506,12.862,11.506,7.062,0,12.736-5.215,12.736-11.506V82.157a.709.709,0,0,0-.709-.709H361.039a.709.709,0,0,0-.709.709V85.84a.709.709,0,0,0,.709.709" transform="translate(-282.441 -51.111)" fill="#fff"/>
      <path id="Path_4964" data-name="Path 4964" d="M179.925,74.533V89.724c0,3.911,2.648,6.4,7.188,6.4,4.287,0,7.061-2.494,7.061-6.4V87.8a.7.7,0,0,1,.7-.7h4.266a.7.7,0,0,1,.7.7v1.928c0,6.291-5.674,11.506-12.736,11.506-7.314,0-12.862-5.215-12.862-11.506V74.533c0-6.348,5.611-11.563,12.862-11.563,6.78,0,12.282,4.808,12.709,10.811a.706.706,0,0,1-.705.752H194.85a.707.707,0,0,1-.7-.658c-.292-3.584-2.99-5.8-7.035-5.8-4.477,0-7.188,2.494-7.188,6.462" transform="translate(-141.436 -51.111)" fill="#fff"/>
      <path id="Path_4965" data-name="Path 4965" d="M5.674,74.533V89.724c0,3.911,2.648,6.4,7.188,6.4,4.287,0,7.061-2.494,7.061-6.4V87.8a.705.705,0,0,1,.705-.705h4.264a.705.705,0,0,1,.705.705v1.927c0,6.291-5.674,11.506-12.736,11.506C5.548,101.23,0,96.015,0,89.724V74.533C0,68.185,5.611,62.97,12.862,62.97c6.78,0,12.281,4.808,12.709,10.81a.707.707,0,0,1-.706.753H20.6a.709.709,0,0,1-.7-.659c-.292-3.583-2.99-5.8-7.035-5.8-4.477,0-7.188,2.494-7.188,6.462" transform="translate(0 -51.111)" fill="#fff"/>
      <path id="Path_4966" data-name="Path 4966" d="M536.764,239.529H510.377a.161.161,0,0,1-.161-.161v-5.415a.161.161,0,0,1,.161-.161h26.387a.161.161,0,0,1,.161.161v5.415a.161.161,0,0,1-.161.161" transform="translate(-414.131 -189.764)" fill="#ef8873"/>
      <path id="Path_4967" data-name="Path 4967" d="M764.78,142.982l3.884-3.884,1.359,1.359-3.884,3.884,3.709,3.709-1.3,1.3-3.709-3.709-3.923,3.922-1.359-1.36,3.923-3.922-3.67-3.67,1.3-1.3Z" transform="translate(-616.515 -112.903)" fill="#fff"/>
    </g>
  </g>
</svg>
