<svg xmlns="http://www.w3.org/2000/svg" width="1046.353" height="181.15" viewBox="90.996 94.704 261.588 45.287"><g data-name="Group 77"><path d="M184.03 122.615h7.276c.464 0 .84.376.84.839v2.918c0 4.63-3.284 7.581-8.359 7.581-5.373 0-8.508-2.951-8.508-7.58v-17.981c0-4.697 3.21-7.65 8.508-7.65 4.787 0 7.98 2.627 8.327 6.865.036.44.394.785.836.785h5.04a.842.842 0 0 0 .84-.897c-.509-7.103-7.02-12.79-15.043-12.79-8.582 0-15.224 6.172-15.224 13.687v17.98c0 7.447 6.567 13.62 15.224 13.62 8.359 0 15.076-6.173 15.076-13.62v-8.955a.84.84 0 0 0-.84-.84H184.03a.84.84 0 0 0-.84.84v4.359c0 .463.377.839.84.839" fill="#e5e4e0" fill-rule="evenodd" data-name="Path 19"/><path d="M136.556 108.39v17.982c0 4.629 3.135 7.581 8.508 7.581 5.075 0 8.359-2.952 8.359-7.58v-2.283c0-.46.373-.834.834-.834h5.049c.46 0 .833.374.833.834v2.282c0 7.447-6.716 13.62-15.075 13.62-8.657 0-15.224-6.173-15.224-13.62v-17.981c0-7.515 6.642-13.687 15.224-13.687 8.026 0 14.539 5.691 15.044 12.797a.835.835 0 0 1-.835.89h-5.051a.839.839 0 0 1-.83-.779c-.346-4.242-3.54-6.87-8.328-6.87-5.299 0-8.508 2.952-8.508 7.649" fill="#e5e4e0" fill-rule="evenodd" data-name="Path 20"/><path d="M97.713 108.39v17.982c0 4.629 3.134 7.581 8.507 7.581 5.075 0 8.359-2.952 8.359-7.58v-2.282c0-.461.374-.835.835-.835h5.047c.46 0 .834.374.834.835v2.281c0 7.447-6.716 13.62-15.075 13.62-8.657 0-15.224-6.173-15.224-13.62v-17.981c0-7.515 6.642-13.687 15.224-13.687 8.026 0 14.538 5.69 15.044 12.795a.837.837 0 0 1-.836.892h-5.05a.839.839 0 0 1-.83-.78c-.346-4.241-3.54-6.869-8.328-6.869-5.298 0-8.507 2.952-8.507 7.649" fill="#e5e4e0" fill-rule="evenodd" data-name="Path 21"/><path d="M235.512 139.574h-29.948a.833.833 0 0 1-.833-.833v-5.124c0-.46.373-.833.833-.833h29.948c.46 0 .834.372.834.833v5.124c0 .46-.373.833-.834.833" fill="#f39d87" fill-rule="evenodd" data-name="Path 22"/><path d="M247.36 105.821c-2.363 0-3.654-1.639-3.654-4.66 0-3.02 1.304-4.608 3.653-4.608 1.949 0 3.175 1.072 3.446 3.253h-1.626c-.155-1.355-.8-1.923-1.82-1.923-1.356 0-2.026 1.059-2.026 3.278 0 2.22.67 3.318 2.026 3.318 1.059 0 1.678-.672 1.82-1.95h1.626c-.27 2.092-1.446 3.292-3.446 3.292" fill="#f39d87" fill-rule="evenodd" data-name="Path 23"/><path d="M259.275 101.174c0 2.878-1.2 4.633-3.589 4.633-2.387 0-3.588-1.755-3.588-4.633 0-2.905 1.2-4.672 3.588-4.672 2.39 0 3.59 1.767 3.59 4.672m-5.564 0c0 2.09.554 3.317 1.974 3.317 1.408 0 1.976-1.226 1.976-3.317 0-2.13-.568-3.356-1.976-3.356-1.42 0-1.974 1.226-1.974 3.356" fill="#f39d87" fill-rule="evenodd" data-name="Path 24"/><path d="M267.37 96.643v9.035h-1.406l-3.37-6.221v6.22h-1.548v-9.034h1.432l3.344 6.221v-6.22h1.548Z" fill="#f39d87" fill-rule="evenodd" data-name="Path 25"/><path d="M275.892 96.643v9.035h-1.406l-3.37-6.221v6.22h-1.548v-9.034H271l3.344 6.221v-6.22h1.548Z" fill="#f39d87" fill-rule="evenodd" data-name="Path 26"/><path d="M279.96 97.96v2.479h4.001v1.33h-4.001v2.594h4.363v1.316h-5.925v-9.035h5.925v1.316h-4.363Z" fill="#f39d87" fill-rule="evenodd" data-name="Path 27"/><path d="M289.966 105.821c-2.362 0-3.652-1.639-3.652-4.66 0-3.02 1.303-4.608 3.652-4.608 1.949 0 3.175 1.072 3.446 3.253h-1.626c-.155-1.355-.8-1.923-1.82-1.923-1.356 0-2.026 1.059-2.026 3.278 0 2.22.67 3.318 2.026 3.318 1.059 0 1.679-.672 1.82-1.95h1.626c-.27 2.092-1.445 3.292-3.446 3.292" fill="#f39d87" fill-rule="evenodd" data-name="Path 28"/><path d="M302.038 97.986h-2.97v7.693h-1.561v-7.693h-2.956v-1.343h7.487v1.343Z" fill="#f39d87" fill-rule="evenodd" data-name="Path 29"/><path d="M307.602 97.973v6.363h2.233v1.343h-6.04v-1.343h2.245v-6.363h-2.246v-1.33h6.04v1.33h-2.232Z" fill="#f39d87" fill-rule="evenodd" data-name="Path 30"/><path d="M318.926 101.174c0 2.878-1.2 4.633-3.589 4.633-2.387 0-3.587-1.755-3.587-4.633 0-2.905 1.2-4.672 3.587-4.672 2.39 0 3.589 1.767 3.589 4.672m-5.563 0c0 2.09.555 3.317 1.974 3.317 1.408 0 1.976-1.226 1.976-3.317 0-2.13-.568-3.356-1.976-3.356-1.42 0-1.974 1.226-1.974 3.356" fill="#f39d87" fill-rule="evenodd" data-name="Path 31"/><path d="M327.02 96.643v9.035h-1.406l-3.37-6.221v6.22h-1.549v-9.034h1.433l3.343 6.221v-6.22h1.549Z" fill="#f39d87" fill-rule="evenodd" data-name="Path 32"/><path d="M247.36 122.763c-2.363 0-3.654-1.639-3.654-4.66 0-3.02 1.304-4.608 3.653-4.608 1.949 0 3.175 1.072 3.446 3.253h-1.626c-.155-1.355-.8-1.923-1.82-1.923-1.356 0-2.026 1.059-2.026 3.278 0 2.221.67 3.318 2.026 3.318 1.059 0 1.678-.672 1.82-1.95h1.626c-.27 2.092-1.446 3.292-3.446 3.292" fill="#f39d87" fill-rule="evenodd" data-name="Path 33"/><path d="M259.275 118.117c0 2.878-1.2 4.633-3.589 4.633-2.387 0-3.588-1.755-3.588-4.633 0-2.905 1.2-4.673 3.588-4.673 2.39 0 3.59 1.768 3.59 4.673m-5.564 0c0 2.09.554 3.317 1.974 3.317 1.408 0 1.976-1.226 1.976-3.317 0-2.13-.568-3.356-1.976-3.356-1.42 0-1.974 1.226-1.974 3.356" fill="#f39d87" fill-rule="evenodd" data-name="Path 34"/><path d="M267.513 113.586v9.035h-1.536v-6.22l-1.588 2.994h-.349l-1.599-2.995v6.221h-1.537v-9.035h1.382l1.922 3.589 1.924-3.589h1.38Z" fill="#f39d87" fill-rule="evenodd" data-name="Path 35"/><path d="M276.033 113.586v9.035h-1.535v-6.22l-1.588 2.994h-.35l-1.598-2.995v6.221h-1.537v-9.035h1.382l1.922 3.589 1.924-3.589h1.38Z" fill="#f39d87" fill-rule="evenodd" data-name="Path 36"/><path d="M284.645 113.586v5.847c0 2.066-1.355 3.33-3.394 3.33-2.04 0-3.394-1.264-3.394-3.33v-5.847h1.562v5.808c0 1.252.734 2.014 1.832 2.014 1.097 0 1.832-.762 1.832-2.014v-5.808h1.562Z" fill="#f39d87" fill-rule="evenodd" data-name="Path 37"/><path d="M292.935 113.586v9.035h-1.406l-3.37-6.22v6.22h-1.549v-9.035h1.433l3.343 6.221v-6.22h1.549Z" fill="#f39d87" fill-rule="evenodd" data-name="Path 38"/><path d="M299.082 114.916v6.363h2.232v1.343h-6.04v-1.343h2.246v-6.363h-2.245v-1.33h6.04v1.33h-2.233Z" fill="#f39d87" fill-rule="evenodd" data-name="Path 39"/><path d="M307.009 122.763c-2.362 0-3.653-1.639-3.653-4.66 0-3.02 1.304-4.608 3.653-4.608 1.948 0 3.175 1.072 3.446 3.253h-1.626c-.155-1.355-.8-1.923-1.82-1.923-1.356 0-2.026 1.059-2.026 3.278 0 2.221.67 3.318 2.026 3.318 1.059 0 1.678-.672 1.82-1.95h1.626c-.271 2.092-1.446 3.292-3.446 3.292" fill="#f39d87" fill-rule="evenodd" data-name="Path 40"/><path d="M316.977 120.711h-3.28l-.554 1.91h-1.562l2.801-9.035h1.91l2.802 9.036h-1.563l-.554-1.91Zm-.375-1.278-1.265-4.311-1.265 4.311h2.53Z" fill="#f39d87" fill-rule="evenodd" data-name="Path 41"/><path d="M327.602 114.929h-2.97v7.693h-1.561v-7.693h-2.956v-1.343h7.487v1.343Z" fill="#f39d87" fill-rule="evenodd" data-name="Path 42"/><path d="M333.167 114.916v6.363h2.232v1.343h-6.04v-1.343h2.246v-6.363h-2.245v-1.33h6.039v1.33h-2.232Z" fill="#f39d87" fill-rule="evenodd" data-name="Path 43"/><path d="M344.491 118.117c0 2.878-1.2 4.633-3.59 4.633-2.387 0-3.587-1.755-3.587-4.633 0-2.905 1.2-4.673 3.588-4.673 2.39 0 3.59 1.768 3.59 4.673m-5.564 0c0 2.09.554 3.317 1.974 3.317 1.408 0 1.975-1.226 1.975-3.317 0-2.13-.567-3.356-1.975-3.356-1.42 0-1.974 1.226-1.974 3.356" fill="#f39d87" fill-rule="evenodd" data-name="Path 44"/><path d="M352.584 113.586v9.035h-1.406l-3.37-6.22v6.22h-1.548v-9.035h1.432l3.344 6.221v-6.22h1.548Z" fill="#f39d87" fill-rule="evenodd" data-name="Path 45"/><path d="M247.255 134.711h3.408v4.853h-1.394v-1.239c-.348.84-.994 1.368-2.194 1.368-2.091 0-3.434-1.626-3.434-4.659 0-3.008 1.33-4.595 3.653-4.595 1.923 0 3.123 1.059 3.382 3.072h-1.626c-.155-1.188-.749-1.742-1.756-1.742-1.329 0-2.026 1.045-2.026 3.278s.684 3.317 2.013 3.317c1.174 0 1.794-.865 1.847-2.336h-1.873v-1.317Z" fill="#f39d87" fill-rule="evenodd" data-name="Path 46"/><path d="m257.443 139.564-1.769-3.885h-1.497v3.885h-1.562v-9.036h3.46c1.742 0 3.033.982 3.033 2.505 0 1.252-.789 2.168-1.975 2.503l2.063 4.028h-1.753Zm-3.266-5.163h1.897c.891 0 1.484-.568 1.484-1.368 0-.71-.593-1.214-1.484-1.214h-1.897v2.582Z" fill="#f39d87" fill-rule="evenodd" data-name="Path 47"/><path d="M267.796 135.06c0 2.878-1.2 4.633-3.589 4.633-2.387 0-3.587-1.755-3.587-4.633 0-2.905 1.2-4.673 3.587-4.673 2.39 0 3.589 1.768 3.589 4.673m-5.563 0c0 2.09.555 3.317 1.974 3.317 1.408 0 1.976-1.226 1.976-3.317 0-2.13-.568-3.357-1.976-3.357-1.42 0-1.974 1.227-1.974 3.357" fill="#f39d87" fill-rule="evenodd" data-name="Path 48"/><path d="m276.59 130.53-1.136 9.034h-1.485l-1.252-5.459-1.226 5.46h-1.484l-1.136-9.035h1.575l.528 6.595 1.136-4.956h1.24l1.122 4.917.543-6.556h1.574Z" fill="#f39d87" fill-rule="evenodd" data-name="Path 49"/><path d="M284.995 131.871h-2.97v7.693h-1.561v-7.693h-2.956v-1.342h7.487v1.342Z" fill="#f39d87" fill-rule="evenodd" data-name="Path 50"/><path d="M293.09 130.53v9.034h-1.563v-3.884h-3.51v3.884h-1.562v-9.034h1.562v3.808h3.51v-3.808h1.562Z" fill="#f39d87" fill-rule="evenodd" data-name="Path 51"/></g></svg>