<svg xmlns="http://www.w3.org/2000/svg" width="485.125" height="151.154" viewBox="91 68 121.281 37.789">
    <g data-name="Group 23">
        <g data-name="Group 22" transform="translate(91 68)" clip-path="url(&quot;#a&quot;)">
            <path d="M77.63 23.29H83.7a.7.7 0 0 1 .7.7v2.434c0 3.863-2.74 6.326-6.974 6.326-4.484 0-7.1-2.463-7.1-6.326V11.421c0-3.919 2.68-6.382 7.1-6.382 3.994 0 6.658 2.191 6.948 5.728.03.367.33.654.698.654h4.205c.405 0 .73-.344.702-.748C89.555 4.746 84.122 0 77.427 0c-7.161 0-12.704 5.15-12.704 11.421v15.003c0 6.214 5.48 11.365 12.704 11.365 6.974 0 12.58-5.15 12.58-11.365V18.952c0-.387-.315-.701-.702-.701H77.63a.7.7 0 0 0-.7.7v3.638a.7.7 0 0 0 .7.7"
                  fill="#0A433D" fill-rule="evenodd" data-name="Path 13"/>
            <path d="M38.016 11.42v15.004c0 3.863 2.615 6.326 7.099 6.326 4.234 0 6.974-2.463 6.974-6.326V24.52c0-.384.312-.696.696-.696h4.213c.385 0 .696.312.696.696v1.904c0 6.214-5.605 11.365-12.58 11.365-7.223 0-12.703-5.151-12.703-11.365V11.42C32.411 5.15 37.954 0 45.115 0c6.697 0 12.13 4.749 12.552 10.678a.697.697 0 0 1-.696.742h-4.215a.7.7 0 0 1-.693-.65c-.288-3.54-2.953-5.731-6.948-5.731-4.422 0-7.1 2.462-7.1 6.381"
                  fill="#0A433D" fill-rule="evenodd" data-name="Path 14"/>
            <path d="M5.604 11.42v15.004c0 3.863 2.616 6.326 7.1 6.326 4.234 0 6.974-2.463 6.974-6.326v-1.903c0-.385.312-.697.697-.697h4.211c.384 0 .696.312.696.697v1.903c0 6.214-5.604 11.365-12.579 11.365C5.48 37.789 0 32.638 0 26.424V11.42C0 5.15 5.542 0 12.703 0c6.697 0 12.13 4.748 12.553 10.676a.699.699 0 0 1-.698.744h-4.213a.7.7 0 0 1-.693-.65c-.288-3.54-2.954-5.731-6.949-5.731-4.421 0-7.099 2.462-7.099 6.381"
                  fill="#0A433D" fill-rule="evenodd" data-name="Path 15"/>
            <path d="M120.586 37.44h-24.99a.695.695 0 0 1-.694-.695v-4.276c0-.384.31-.695.695-.695h24.989c.384 0 .695.31.695.695v4.276a.695.695 0 0 1-.695.695"
                  fill="#f39d87" fill-rule="evenodd" data-name="Path 16"/>
        </g>
    </g>
    <defs>
        <clipPath id="a">
            <path d="M0 0h121.281v37.789H0V0z" data-name="Rectangle 30"/>
        </clipPath>
    </defs>
</svg>